<svg width="100" height="30" viewBox="0 0 100 30" fill="none" xmlns="http://www.w3.org/2000/svg">
<path d="M1.97858 20L2.91324 17.3054H6.89051L7.8202 20H9.45088L5.78682 9.81818H4.01196L0.3479 20H1.97858ZM3.36068 16.0128L4.86211 11.6676H4.94165L6.44307 16.0128H3.36068Z" fill="black"/>
<path d="M10.8019 20H12.2884V16.9474H13.2529L15.5548 20H17.3992L14.4063 16.0774L17.3644 12.3636H15.5249L13.0043 15.5653H12.2884V12.3636H10.8019V20Z" fill="black"/>
<path d="M18.5539 20H20.0404V16.9474H21.0049L23.3067 20H25.1512L22.1583 16.0774L25.1164 12.3636H23.2769L20.7563 15.5653H20.0404V12.3636H18.5539V20Z" fill="black"/>
<path d="M28.5281 20.169C29.7909 20.169 30.5018 19.5277 30.7852 18.956H30.8449V20H32.2966V14.929C32.2966 12.7067 30.5466 12.2642 29.3335 12.2642C27.9514 12.2642 26.6787 12.821 26.1815 14.2131L27.5785 14.5312C27.7973 13.9893 28.3541 13.4673 29.3534 13.4673C30.3129 13.4673 30.8051 13.9695 30.8051 14.8345V14.8693C30.8051 15.4112 30.2483 15.4013 28.8761 15.5604C27.4294 15.7294 25.9479 16.1072 25.9479 17.8423C25.9479 19.3437 27.0764 20.169 28.5281 20.169ZM28.8513 18.9759C28.0111 18.9759 27.4045 18.598 27.4045 17.8622C27.4045 17.0668 28.1105 16.7834 28.9706 16.669C29.4528 16.6044 30.5963 16.4751 30.8101 16.2614V17.2457C30.8101 18.1506 30.0892 18.9759 28.8513 18.9759Z" fill="black"/>
<path d="M34.9427 22.8438C36.1707 22.8438 36.9512 22.2024 37.3887 21.0192L40.5457 12.3786L38.9399 12.3636L37.0059 18.2898H36.9264L34.9924 12.3636H33.4015L36.1956 20.0994L36.0116 20.6065C35.6338 21.5959 35.1018 21.6854 34.2865 21.4616L33.9285 22.6797C34.1075 22.7642 34.4953 22.8438 34.9427 22.8438Z" fill="black"/>
<path d="M43.4031 12.3636H41.9464V20H43.4031V16.8281H46.7092V20H48.1609V12.3636H46.7092V15.5405H43.4031V12.3636Z" fill="black"/>
<path d="M49.2025 13.6463H51.7032V20H53.1549V13.6463H55.6457V12.3636H49.2025V13.6463Z" fill="black"/>
<path d="M69.9999 6C69.9999 2.68629 72.6862 0 75.9999 0H93.9999C97.3136 0 99.9999 2.68629 99.9999 6V24C99.9999 27.3137 97.3136 30 93.9999 30H75.9999C72.6862 30 69.9999 27.3137 69.9999 24V6Z" fill="#F5F5F5"/>
<path fill-rule="evenodd" clip-rule="evenodd" d="M86.43 16.9675C87.7915 16.4052 88.7495 15.0645 88.7495 13.5C88.7495 11.4289 87.0706 9.75 84.9995 9.75C82.9284 9.75 81.2495 11.4289 81.2495 13.5C81.2495 15.0645 82.2076 16.4052 83.569 16.9675C82.1747 17.1998 80.8921 17.7657 79.8081 18.5802L81.1897 20.419C82.2509 19.6217 83.5685 19.1496 84.9996 19.1496C86.4307 19.1496 87.7483 19.6217 88.8096 20.419L90.1911 18.5802C89.107 17.7657 87.8244 17.1997 86.43 16.9675Z" fill="black"/>
</svg>
